<?xml version="1.0" encoding="UTF-8" standalone="no"?>
<svg
   height="24px"
   viewBox="0 0 24 24"
   width="24px"
   fill="#FFFFFF"
   version="1.1"
   id="svg23"
   sodipodi:docname="diesel.svg"
   inkscape:version="1.1.2 (b8e25be833, 2022-02-05)"
   inkscape:export-filename="C:\Users\jaro5\Downloads\diesel.png"
   inkscape:export-xdpi="1024"
   inkscape:export-ydpi="1024"
   xmlns:inkscape="http://www.inkscape.org/namespaces/inkscape"
   xmlns:sodipodi="http://sodipodi.sourceforge.net/DTD/sodipodi-0.dtd"
   xmlns="http://www.w3.org/2000/svg"
   xmlns:svg="http://www.w3.org/2000/svg">
  <defs
     id="defs27" />
  <sodipodi:namedview
     id="namedview25"
     pagecolor="#505050"
     bordercolor="#eeeeee"
     borderopacity="1"
     inkscape:pageshadow="0"
     inkscape:pageopacity="0"
     inkscape:pagecheckerboard="0"
     showgrid="true"
     inkscape:zoom="16"
     inkscape:cx="-0.875"
     inkscape:cy="7.8125"
     inkscape:window-width="1920"
     inkscape:window-height="986"
     inkscape:window-x="-11"
     inkscape:window-y="-11"
     inkscape:window-maximized="1"
     inkscape:current-layer="svg23"
     inkscape:snap-object-midpoints="false"
     inkscape:snap-midpoints="true"
     inkscape:snap-grids="true"
     inkscape:object-paths="true"
     showguides="true">
    <inkscape:grid
       type="xygrid"
       id="grid119" />
  </sodipodi:namedview>
  <path
     d="M 0,0 H 30 V 30 H 0 Z"
     fill="none"
     id="path19"
     style="stroke-width:1.25" />
  <path
     d="m 6,15.315789 c 0,0.648422 0.2925,1.230527 0.75,1.635791 v 1.311578 C 6.75,18.66842 7.0875,19 7.5,19 H 8.25 C 8.6625,19 9,18.66842 9,18.263158 v -0.736842 h 6 v 0.736842 C 15,18.66842 15.3375,19 15.75,19 h 0.75 c 0.4125,0 0.75,-0.331579 0.75,-0.736842 V 16.95158 C 17.7075,16.546316 18,15.964211 18,15.315789 V 7.9473682 C 18,5.3684211 15.315,5 12,5 8.685,5 6,5.3684211 6,7.9473682 Z m 2.625,0.736842 c -0.6225,0 -1.125,-0.493684 -1.125,-1.105262 0,-0.61158 0.5025,-1.105264 1.125,-1.105264 0.6225,0 1.125,0.493684 1.125,1.105264 0,0.611578 -0.5025,1.105262 -1.125,1.105262 z m 6.75,0 c -0.6225,0 -1.125,-0.493684 -1.125,-1.105262 0,-0.61158 0.5025,-1.105264 1.125,-1.105264 0.6225,0 1.125,0.493684 1.125,1.105264 0,0.611578 -0.5025,1.105262 -1.125,1.105262 z M 16.5,11.631579 h -9 V 7.9473682 h 9 z"
     id="path21"
     style="stroke-width:0.743392;fill:#00ff00" />
</svg>
